<svg width="20" height="21" viewBox="0 0 20 21" fill="none" xmlns="http://www.w3.org/2000/svg">
<path d="M10 18.8901C14.42 18.8901 18 15.3101 18 10.8901C18 6.47014 14.42 2.89014 10 2.89014C5.58 2.89014 2 6.47014 2 10.8901C2 15.3101 5.58 18.8901 10 18.8901ZM10 0.890137C15.52 0.890137 20 5.37014 20 10.8901C20 16.4101 15.52 20.8901 10 20.8901C4.47 20.8901 0 16.3901 0 10.8901C0 5.37014 4.48 0.890137 10 0.890137ZM10.5 5.89014V11.1401L15 13.8101L14.25 15.0401L9 11.8901V5.89014H10.5Z" fill="black"/>
</svg>
