<svg width="24" height="42" viewBox="0 0 24 42" fill="none" xmlns="http://www.w3.org/2000/svg">
<path fill-rule="evenodd" clip-rule="evenodd" d="M11.9997 9.30371C14.2997 9.30371 16.1663 11.6137 16.1663 14.46C16.1663 17.3062 14.2997 19.6162 11.9997 19.6162C9.69967 19.6162 7.83301 17.3062 7.83301 14.46C7.83301 11.6137 9.69967 9.30371 11.9997 9.30371ZM23.6663 14.46C23.6663 25.2881 11.9997 41.2725 11.9997 41.2725C11.9997 41.2725 0.333008 25.2881 0.333008 14.46C0.333008 6.47809 5.54967 0.0224609 11.9997 0.0224609C18.4497 0.0224609 23.6663 6.47809 23.6663 14.46ZM11.9997 4.14746C7.39967 4.14746 3.66634 8.76746 3.66634 14.46C3.66634 16.5225 3.66634 20.6475 11.9997 34.4868C20.333 20.6475 20.333 16.5225 20.333 14.46C20.333 8.76746 16.5997 4.14746 11.9997 4.14746Z" fill="black"/>
</svg>
