<svg width="20" height="20" viewBox="0 0 20 20" fill="none" xmlns="http://www.w3.org/2000/svg">
<path fill-rule="evenodd" clip-rule="evenodd" d="M0 1C0 0.734784 0.105357 0.48043 0.292893 0.292893C0.48043 0.105357 0.734784 0 1 0H1.768C2.23533 0.000182706 2.68784 0.164012 3.04697 0.463045C3.4061 0.762078 3.64918 1.17743 3.734 1.637L3.986 3H17.743C18.0439 2.99996 18.341 3.06782 18.612 3.19852C18.8831 3.32923 19.1211 3.51941 19.3084 3.7549C19.4958 3.99039 19.6276 4.26512 19.694 4.55861C19.7604 4.8521 19.7597 5.1568 19.692 5.45L17.846 13.45C17.7442 13.8908 17.4959 14.2841 17.1418 14.5656C16.7876 14.8472 16.3484 15.0003 15.896 15H5.019C4.77904 15.0044 4.54549 14.9224 4.36098 14.769C4.17647 14.6155 4.05332 14.4008 4.014 14.164L1.768 2H1C0.734784 2 0.48043 1.89464 0.292893 1.70711C0.105357 1.51957 0 1.26522 0 1ZM5.832 13H15.897L17.743 5H4.355L5.832 13ZM6 16C5.46957 16 4.96086 16.2107 4.58579 16.5858C4.21071 16.9609 4 17.4696 4 18C4 18.5304 4.21071 19.0391 4.58579 19.4142C4.96086 19.7893 5.46957 20 6 20C6.53043 20 7.03914 19.7893 7.41421 19.4142C7.78929 19.0391 8 18.5304 8 18C8 17.4696 7.78929 16.9609 7.41421 16.5858C7.03914 16.2107 6.53043 16 6 16ZM16 16C15.4696 16 14.9609 16.2107 14.5858 16.5858C14.2107 16.9609 14 17.4696 14 18C14 18.5304 14.2107 19.0391 14.5858 19.4142C14.9609 19.7893 15.4696 20 16 20C16.5304 20 17.0391 19.7893 17.4142 19.4142C17.7893 19.0391 18 18.5304 18 18C18 17.4696 17.7893 16.9609 17.4142 16.5858C17.0391 16.2107 16.5304 16 16 16Z" fill="black" fill-opacity="0.9"/>
</svg>
