<svg width="15" height="15" viewBox="0 0 15 15" fill="none" xmlns="http://www.w3.org/2000/svg">
<path d="M13.5917 12.4167L14.4217 13.2567C14.5722 13.4123 14.6558 13.6206 14.6545 13.8371C14.6532 14.0536 14.5671 14.261 14.4146 14.4147C14.2622 14.5685 14.0556 14.6563 13.8391 14.6595C13.6226 14.6627 13.4135 14.5809 13.2567 14.4317L12.4 13.6C11.825 13.9583 11.1417 14.1667 10.4167 14.1667C8.33333 14.1667 6.66667 12.5 6.66667 10.4167C6.66667 8.33333 8.33333 6.66667 10.4167 6.66667C12.5 6.66667 14.1667 8.33333 14.1667 10.4167C14.1667 11.15 13.9583 11.8417 13.5917 12.4167ZM10.4167 12.5C10.9692 12.5 11.4991 12.2805 11.8898 11.8898C12.2805 11.4991 12.5 10.9692 12.5 10.4167C12.5 9.86413 12.2805 9.33423 11.8898 8.94353C11.4991 8.55283 10.9692 8.33333 10.4167 8.33333C9.86413 8.33333 9.33423 8.55283 8.94353 8.94353C8.55283 9.33423 8.33333 9.86413 8.33333 10.4167C8.33333 10.9692 8.55283 11.4991 8.94353 11.8898C9.33423 12.2805 9.86413 12.5 10.4167 12.5ZM14.1667 0C14.3877 0 14.5996 0.0877973 14.7559 0.244078C14.9122 0.400358 15 0.61232 15 0.833333C15 1.05435 14.9122 1.26631 14.7559 1.42259C14.5996 1.57887 14.3877 1.66667 14.1667 1.66667H0.833333C0.61232 1.66667 0.400358 1.57887 0.244078 1.42259C0.0877973 1.26631 0 1.05435 0 0.833333C0 0.61232 0.0877973 0.400358 0.244078 0.244078C0.400358 0.0877973 0.61232 0 0.833333 0H14.1667ZM0.833333 10C0.61232 10 0.400358 9.9122 0.244078 9.75592C0.0877973 9.59964 0 9.38768 0 9.16667C0 8.94565 0.0877973 8.73369 0.244078 8.57741C0.400358 8.42113 0.61232 8.33333 0.833333 8.33333H4.16667C4.38768 8.33333 4.59964 8.42113 4.75592 8.57741C4.9122 8.73369 5 8.94565 5 9.16667C5 9.38768 4.9122 9.59964 4.75592 9.75592C4.59964 9.9122 4.38768 10 4.16667 10H0.833333ZM0.833333 5.83333C0.61232 5.83333 0.400358 5.74554 0.244078 5.58926C0.0877973 5.43297 0 5.22101 0 5C0 4.77899 0.0877973 4.56702 0.244078 4.41074C0.400358 4.25446 0.61232 4.16667 0.833333 4.16667H14.1667C14.3877 4.16667 14.5996 4.25446 14.7559 4.41074C14.9122 4.56702 15 4.77899 15 5C15 5.22101 14.9122 5.43297 14.7559 5.58926C14.5996 5.74554 14.3877 5.83333 14.1667 5.83333H13.3083C12.4667 5.30833 11.475 5 10.4167 5C9.35833 5 8.36667 5.30833 7.525 5.83333H0.833333Z" fill="white"/>
</svg>
