<svg width="16" height="18" viewBox="0 0 16 18" fill="none" xmlns="http://www.w3.org/2000/svg">
<path d="M7.16667 8.91663V13.1666C7.16667 13.3876 7.25446 13.5996 7.41074 13.7559C7.56702 13.9122 7.77899 14 8 14C8.22101 14 8.43297 13.9122 8.58926 13.7559C8.74554 13.5996 8.83333 13.3876 8.83333 13.1666V8.91663C9.84504 8.71012 10.744 8.13531 11.356 7.30364C11.968 6.47197 12.2493 5.4427 12.1456 4.41536C12.0418 3.38802 11.5602 2.43582 10.7943 1.74335C10.0283 1.05088 9.03256 0.66748 8 0.66748C6.96744 0.66748 5.97165 1.05088 5.20571 1.74335C4.43976 2.43582 3.95821 3.38802 3.85443 4.41536C3.75065 5.4427 4.03202 6.47197 4.644 7.30364C5.25598 8.13531 6.15496 8.71012 7.16667 8.91663ZM8 2.3333C8.3283 2.3333 8.65339 2.39796 8.95671 2.5236C9.26002 2.64923 9.53562 2.83338 9.76777 3.06553C9.99991 3.29768 10.1841 3.57327 10.3097 3.87659C10.4353 4.1799 10.5 4.50499 10.5 4.8333C10.5 5.1616 10.4353 5.48669 10.3097 5.79001C10.1841 6.09332 9.99991 6.36892 9.76777 6.60106C9.53562 6.83321 9.26002 7.01736 8.95671 7.143C8.65339 7.26863 8.3283 7.3333 8 7.3333C7.33696 7.3333 6.70107 7.0699 6.23223 6.60106C5.76339 6.13222 5.5 5.49634 5.5 4.8333C5.5 4.17026 5.76339 3.53437 6.23223 3.06553C6.70107 2.59669 7.33696 2.3333 8 2.3333ZM11.5083 11.0166C11.3989 10.9936 11.286 10.9924 11.1761 11.0131C11.0662 11.0337 10.9615 11.0758 10.8678 11.137C10.7742 11.1981 10.6935 11.2771 10.6304 11.3694C10.5673 11.4617 10.523 11.5655 10.5 11.675C10.477 11.7844 10.4758 11.8973 10.4965 12.0072C10.5171 12.1171 10.5592 12.2218 10.6203 12.3155C10.6815 12.4091 10.7604 12.4898 10.8528 12.5529C10.9451 12.616 11.0489 12.6603 11.1583 12.6833C13.05 13.0583 13.8333 13.7333 13.8333 14C13.8333 14.4833 11.7917 15.6666 8 15.6666C4.20833 15.6666 2.16667 14.4833 2.16667 14C2.16667 13.7333 2.95 13.0583 4.84167 12.65C5.05356 12.5947 5.23606 12.46 5.35132 12.2738C5.46659 12.0876 5.50578 11.8642 5.46077 11.6499C5.41577 11.4356 5.29002 11.2468 5.10959 11.1227C4.92916 10.9986 4.7079 10.9487 4.49167 10.9833C1.95833 11.5666 0.5 12.6583 0.5 14C0.5 16.1916 4.275 17.3333 8 17.3333C11.725 17.3333 15.5 16.1916 15.5 14C15.5 12.6583 14.0417 11.5666 11.5083 11.0166Z" fill="black" fill-opacity="0.9"/>
</svg>
