<svg width="48" height="12" viewBox="0 0 48 12" fill="none" xmlns="http://www.w3.org/2000/svg">
<path d="M47.0725 6.40489C47.2198 6.25523 47.3024 6.05364 47.3024 5.84363C47.3024 5.63363 47.2198 5.43204 47.0725 5.28238L42.0225 0.232386C41.8736 0.0832014 41.6716 -0.000741654 41.4609 -0.00097607C41.2501 -0.00121049 41.0479 0.0822812 40.8987 0.231134C40.7495 0.379987 40.6656 0.582006 40.6654 0.79275C40.6651 1.00349 40.7486 1.2057 40.8975 1.35488L45.39 5.84489L40.9 10.3349C40.7511 10.4837 40.6675 10.6856 40.6675 10.8961C40.6675 11.1066 40.7511 11.3085 40.9 11.4574C41.0488 11.6062 41.2507 11.6899 41.4612 11.6899C41.6717 11.6899 41.8736 11.6062 42.0225 11.4574L47.0725 6.40489ZM0.47998 6.63738H46.5125V5.04989H0.47998V6.63738Z" fill="white"/>
</svg>
