<svg width="124" height="45" viewBox="0 0 124 45" fill="none" xmlns="http://www.w3.org/2000/svg">
<g clip-path="url(#clip0_73_3217)">
<g clip-path="url(#clip1_73_3217)">
<g clip-path="url(#clip2_73_3217)">
<path d="M116 0H8C3.58172 0 0 3.58172 0 8V32C0 36.4183 3.58172 40 8 40H116C120.418 40 124 36.4183 124 32V8C124 3.58172 120.418 0 116 0Z" fill="black"/>
<path d="M28.7047 20.7633C28.7167 19.8433 28.967 18.9412 29.4321 18.141C29.8972 17.3407 30.5621 16.6684 31.3649 16.1865C30.8549 15.4754 30.1821 14.8901 29.3998 14.4773C28.6176 14.0645 27.7476 13.8354 26.8589 13.8083C24.9636 13.6149 23.1255 14.9152 22.1591 14.9152C21.1751 14.9152 19.6882 13.8277 18.0867 13.8599C17.0507 13.8926 16.041 14.1867 15.156 14.7137C14.2711 15.2406 13.541 15.9824 13.0369 16.8667C10.8533 20.557 12.4822 25.9806 14.5735 28.9638C15.6191 30.4252 16.843 32.0565 18.4422 31.9985C20.0084 31.9351 20.5929 31.0238 22.4838 31.0238C24.3549 31.0238 24.9052 31.9985 26.5375 31.962C28.2171 31.9351 29.2759 30.4951 30.2852 29.0207C31.0373 27.9798 31.616 26.8294 32 25.612C31.0239 25.2089 30.1909 24.5341 29.6049 23.6719C29.0189 22.8096 28.7058 21.7981 28.7047 20.7633ZM25.6206 11.8472C26.5367 10.7734 26.988 9.39336 26.8787 8C25.4791 8.14348 24.1861 8.79652 23.2576 9.82901C22.8037 10.3334 22.456 10.9201 22.2345 11.5557C22.013 12.1913 21.9219 12.8633 21.9665 13.5332C22.6666 13.5403 23.3593 13.3921 23.9922 13.0998C24.6252 12.8076 25.182 12.3789 25.6206 11.8461V11.8472Z" fill="white"/>
<path d="M45.5859 19.1406L42.1875 29H40.1328L44.4141 17.625H45.7266L45.5859 19.1406ZM48.4297 29L45.0234 19.1406L44.875 17.625H46.1953L50.4922 29H48.4297ZM48.2656 24.7812V26.3358H42.0781V24.7812H48.2656ZM52.8281 22.1719V32.25H50.9453V20.5469H52.6797L52.8281 22.1719ZM58.3359 24.6952V24.8594C58.3359 25.474 58.263 26.0442 58.1172 26.5702C57.9766 27.091 57.7656 27.5469 57.4844 27.9375C57.2083 28.3229 56.8672 28.6223 56.4609 28.8358C56.0547 29.0494 55.5859 29.1562 55.0547 29.1562C54.5286 29.1562 54.0677 29.0599 53.6719 28.8672C53.2812 28.6693 52.9505 28.3906 52.6797 28.0312C52.4089 27.6719 52.1901 27.25 52.0234 26.7656C51.862 26.276 51.7474 25.7396 51.6797 25.1562V24.5233C51.7474 23.9035 51.862 23.341 52.0234 22.8358C52.1901 22.3306 52.4089 21.8958 52.6797 21.5312C52.9505 21.1667 53.2812 20.8854 53.6719 20.6875C54.0625 20.4896 54.5182 20.3906 55.0391 20.3906C55.5703 20.3906 56.0417 20.4948 56.4531 20.7031C56.8646 20.9062 57.2109 21.1979 57.4922 21.5781C57.7734 21.9531 57.9844 22.4062 58.125 22.9375C58.2656 23.4635 58.3359 24.0494 58.3359 24.6952ZM56.4531 24.8594V24.6952C56.4531 24.3046 56.4167 23.9427 56.3438 23.6094C56.2708 23.2708 56.1562 22.9739 56 22.7188C55.8438 22.4634 55.6432 22.2656 55.3984 22.125C55.1589 21.9792 54.8698 21.9062 54.5312 21.9062C54.1979 21.9062 53.9115 21.9635 53.6719 22.0781C53.4323 22.1875 53.2318 22.3411 53.0703 22.5391C52.9089 22.737 52.7839 22.9688 52.6953 23.2344C52.6068 23.4948 52.5443 23.7785 52.5078 24.0858V25.6016C52.5703 25.9766 52.6771 26.3202 52.8281 26.6327C52.9792 26.9452 53.1927 27.1952 53.4688 27.3827C53.75 27.565 54.1094 27.6562 54.5469 27.6562C54.8854 27.6562 55.1745 27.5833 55.4141 27.4375C55.6536 27.2917 55.849 27.0911 56 26.8358C56.1562 26.5754 56.2708 26.276 56.3438 25.9375C56.4167 25.599 56.4531 25.2396 56.4531 24.8594ZM61.3281 22.1719V32.25H59.4453V20.5469H61.1797L61.3281 22.1719ZM66.8359 24.6952V24.8594C66.8359 25.474 66.763 26.0442 66.6172 26.5702C66.4766 27.091 66.2656 27.5469 65.9844 27.9375C65.7083 28.3229 65.3672 28.6223 64.9609 28.8358C64.5547 29.0494 64.0859 29.1562 63.5547 29.1562C63.0286 29.1562 62.5677 29.0599 62.1719 28.8672C61.7812 28.6693 61.4505 28.3906 61.1797 28.0312C60.9089 27.6719 60.6901 27.25 60.5234 26.7656C60.362 26.276 60.2474 25.7396 60.1797 25.1562V24.5233C60.2474 23.9035 60.362 23.341 60.5234 22.8358C60.6901 22.3306 60.9089 21.8958 61.1797 21.5312C61.4505 21.1667 61.7812 20.8854 62.1719 20.6875C62.5625 20.4896 63.0182 20.3906 63.5391 20.3906C64.0703 20.3906 64.5417 20.4948 64.9531 20.7031C65.3646 20.9062 65.7109 21.1979 65.9922 21.5781C66.2734 21.9531 66.4844 22.4062 66.625 22.9375C66.7656 23.4635 66.8359 24.0494 66.8359 24.6952ZM64.9531 24.8594V24.6952C64.9531 24.3046 64.9167 23.9427 64.8438 23.6094C64.7708 23.2708 64.6562 22.9739 64.5 22.7188C64.3438 22.4634 64.1432 22.2656 63.8984 22.125C63.6589 21.9792 63.3698 21.9062 63.0312 21.9062C62.6979 21.9062 62.4115 21.9635 62.1719 22.0781C61.9323 22.1875 61.7318 22.3411 61.5703 22.5391C61.4089 22.737 61.2839 22.9688 61.1953 23.2344C61.1068 23.4948 61.0443 23.7785 61.0078 24.0858V25.6016C61.0703 25.9766 61.1771 26.3202 61.3281 26.6327C61.4792 26.9452 61.6927 27.1952 61.9688 27.3827C62.25 27.565 62.6094 27.6562 63.0469 27.6562C63.3854 27.6562 63.6745 27.5833 63.9141 27.4375C64.1536 27.2917 64.349 27.0911 64.5 26.8358C64.6562 26.5754 64.7708 26.276 64.8438 25.9375C64.9167 25.599 64.9531 25.2396 64.9531 24.8594ZM77.5938 26.0702C77.5938 25.8358 77.5573 25.6275 77.4844 25.4452C77.4167 25.2629 77.2943 25.0963 77.1172 24.9452C76.9401 24.7942 76.6901 24.6483 76.3672 24.5077C76.0495 24.3619 75.6432 24.2135 75.1484 24.0625C74.6068 23.8958 74.1068 23.7108 73.6484 23.5077C73.1953 23.2994 72.7995 23.0599 72.4609 22.7891C72.1224 22.513 71.8594 22.1979 71.6719 21.8438C71.4844 21.4844 71.3906 21.0703 71.3906 20.6016C71.3906 20.138 71.487 19.716 71.6797 19.3358C71.8776 18.9556 72.1562 18.6276 72.5156 18.3516C72.8802 18.0703 73.3099 17.8542 73.8047 17.7031C74.2995 17.5469 74.8464 17.4688 75.4453 17.4688C76.2891 17.4688 77.0156 17.625 77.625 17.9375C78.2396 18.25 78.7109 18.6692 79.0391 19.1952C79.3724 19.7213 79.5391 20.3021 79.5391 20.9375H77.5938C77.5938 20.5625 77.513 20.2317 77.3516 19.9452C77.1953 19.6535 76.9557 19.4244 76.6328 19.2577C76.3151 19.091 75.9115 19.0077 75.4219 19.0077C74.9583 19.0077 74.5729 19.0781 74.2656 19.2188C73.9583 19.3593 73.7292 19.5495 73.5781 19.7891C73.4271 20.0286 73.3516 20.2995 73.3516 20.6016C73.3516 20.8151 73.401 21.0104 73.5 21.1875C73.599 21.3594 73.75 21.5208 73.9531 21.6719C74.1562 21.8177 74.4115 21.9556 74.7188 22.0858C75.026 22.216 75.388 22.341 75.8047 22.4608C76.4349 22.6483 76.9844 22.8567 77.4531 23.0858C77.9219 23.3098 78.3125 23.5651 78.625 23.8516C78.9375 24.138 79.1719 24.4635 79.3281 24.8281C79.4844 25.1875 79.5625 25.5964 79.5625 26.0547C79.5625 26.5339 79.4661 26.9661 79.2734 27.3516C79.0807 27.7318 78.8047 28.0573 78.4453 28.3281C78.0911 28.5938 77.6641 28.7994 77.1641 28.9452C76.6693 29.0858 76.1172 29.1562 75.5078 29.1562C74.9609 29.1562 74.4219 29.0833 73.8906 28.9375C73.3646 28.7917 72.8854 28.5702 72.4531 28.2733C72.0208 27.9713 71.6771 27.5963 71.4219 27.1483C71.1667 26.6952 71.0391 26.1667 71.0391 25.5625H73C73 25.9323 73.0625 26.2473 73.1875 26.5077C73.3177 26.7681 73.4974 26.9817 73.7266 27.1483C73.9557 27.3098 74.2214 27.4296 74.5234 27.5077C74.8307 27.5858 75.1589 27.625 75.5078 27.625C75.9661 27.625 76.349 27.5599 76.6562 27.4297C76.9688 27.2995 77.2031 27.1171 77.3594 26.8827C77.5156 26.6483 77.5938 26.3775 77.5938 26.0702ZM84.4844 20.5469V21.9219H79.7188V20.5469H84.4844ZM81.0938 18.4766H82.9766V26.6641C82.9766 26.9245 83.013 27.125 83.0859 27.2656C83.1641 27.401 83.2708 27.4922 83.4062 27.5391C83.5417 27.5859 83.7005 27.6094 83.8828 27.6094C84.013 27.6094 84.138 27.6016 84.2578 27.5858C84.3776 27.5702 84.474 27.5547 84.5469 27.5391L84.5547 28.9766C84.3984 29.0234 84.2161 29.0651 84.0078 29.1016C83.8047 29.138 83.5703 29.1562 83.3047 29.1562C82.8724 29.1562 82.4896 29.0807 82.1562 28.9297C81.8229 28.7734 81.5625 28.5208 81.375 28.1719C81.1875 27.8229 81.0938 27.3594 81.0938 26.7812V18.4766ZM84.8906 24.8672V24.6875C84.8906 24.0781 84.9792 23.513 85.1562 22.9922C85.3333 22.4661 85.5885 22.0104 85.9219 21.625C86.2604 21.2344 86.6719 20.9323 87.1562 20.7188C87.6458 20.4999 88.1979 20.3906 88.8125 20.3906C89.4323 20.3906 89.9844 20.4999 90.4688 20.7188C90.9583 20.9323 91.3724 21.2344 91.7109 21.625C92.0495 22.0104 92.3073 22.4661 92.4844 22.9922C92.6615 23.513 92.75 24.0781 92.75 24.6875V24.8672C92.75 25.4766 92.6615 26.0417 92.4844 26.5625C92.3073 27.0833 92.0495 27.5391 91.7109 27.9297C91.3724 28.3151 90.9609 28.6171 90.4766 28.8358C89.9922 29.0494 89.4427 29.1562 88.8281 29.1562C88.2083 29.1562 87.6536 29.0494 87.1641 28.8358C86.6797 28.6171 86.2682 28.3151 85.9297 27.9297C85.5911 27.5391 85.3333 27.0833 85.1562 26.5625C84.9792 26.0417 84.8906 25.4766 84.8906 24.8672ZM86.7734 24.6875V24.8672C86.7734 25.2474 86.8125 25.6067 86.8906 25.9452C86.9688 26.2838 87.0911 26.5806 87.2578 26.8358C87.4245 27.0911 87.638 27.2917 87.8984 27.4375C88.1589 27.5833 88.4688 27.6562 88.8281 27.6562C89.1771 27.6562 89.4792 27.5833 89.7344 27.4375C89.9948 27.2917 90.2083 27.0911 90.375 26.8358C90.5417 26.5806 90.6641 26.2838 90.7422 25.9452C90.8255 25.6067 90.8672 25.2474 90.8672 24.8672V24.6875C90.8672 24.3125 90.8255 23.9583 90.7422 23.625C90.6641 23.2865 90.5391 22.987 90.3672 22.7266C90.2005 22.4661 89.987 22.263 89.7266 22.1172C89.4714 21.9661 89.1667 21.8906 88.8125 21.8906C88.4583 21.8906 88.151 21.9661 87.8906 22.1172C87.6354 22.263 87.4245 22.4661 87.2578 22.7266C87.0911 22.987 86.9688 23.2865 86.8906 23.625C86.8125 23.9583 86.7734 24.3125 86.7734 24.6875ZM95.7188 22.1562V29H93.8359V20.5469H95.6328L95.7188 22.1562ZM98.3047 20.4922L98.2891 22.2422C98.1745 22.2214 98.0495 22.2056 97.9141 22.1952C97.7839 22.1848 97.6536 22.1797 97.5234 22.1797C97.2005 22.1797 96.9167 22.2265 96.6719 22.3202C96.4271 22.4088 96.2214 22.539 96.0547 22.7108C95.8932 22.8775 95.7682 23.0806 95.6797 23.3202C95.5911 23.5598 95.5391 23.8281 95.5234 24.125L95.0938 24.1562C95.0938 23.625 95.1458 23.1328 95.25 22.6797C95.3542 22.2266 95.5104 21.8281 95.7188 21.4844C95.9323 21.1406 96.1979 20.8724 96.5156 20.6797C96.8385 20.487 97.2109 20.3906 97.6328 20.3906C97.7474 20.3906 97.8698 20.401 98 20.4219C98.1354 20.4427 98.237 20.4661 98.3047 20.4922ZM102.555 29.1562C101.93 29.1562 101.365 29.0547 100.859 28.8516C100.359 28.6432 99.9323 28.3541 99.5781 27.9844C99.2292 27.6146 98.9609 27.1797 98.7734 26.6797C98.5859 26.1797 98.4922 25.6406 98.4922 25.0625V24.75C98.4922 24.0885 98.5885 23.4896 98.7812 22.9531C98.974 22.4167 99.2422 21.9583 99.5859 21.5781C99.9297 21.1927 100.336 20.8983 100.805 20.6952C101.273 20.4921 101.781 20.3906 102.328 20.3906C102.932 20.3906 103.461 20.4921 103.914 20.6952C104.367 20.8983 104.742 21.1849 105.039 21.5547C105.341 21.9193 105.565 22.3542 105.711 22.8594C105.862 23.3646 105.938 23.9219 105.938 24.5312V25.3358H99.4062V23.9844H104.078V23.8358C104.068 23.4973 104 23.1796 103.875 22.8827C103.755 22.5858 103.57 22.3464 103.32 22.1641C103.07 21.9818 102.737 21.8906 102.32 21.8906C102.008 21.8906 101.729 21.9583 101.484 22.0938C101.245 22.2239 101.044 22.4141 100.883 22.6641C100.721 22.9141 100.596 23.216 100.508 23.5702C100.424 23.9192 100.383 24.3125 100.383 24.75V25.0625C100.383 25.4323 100.432 25.776 100.531 26.0938C100.635 26.4061 100.786 26.6797 100.984 26.9141C101.182 27.1484 101.422 27.3333 101.703 27.4688C101.984 27.599 102.305 27.6641 102.664 27.6641C103.117 27.6641 103.521 27.5729 103.875 27.3906C104.229 27.2083 104.536 26.9505 104.797 26.6172L105.789 27.5781C105.607 27.8438 105.37 28.099 105.078 28.3438C104.786 28.5833 104.43 28.7786 104.008 28.9297C103.591 29.0807 103.107 29.1562 102.555 29.1562Z" fill="white"/>
<path d="M42.5273 11.2734H41.7383V10.7148H42.418C42.6602 10.7148 42.8568 10.6797 43.0078 10.6094C43.1589 10.5365 43.2682 10.4362 43.3359 10.3086C43.4062 10.1784 43.4414 10.0273 43.4414 9.85546C43.4414 9.70181 43.4023 9.5612 43.3242 9.43359C43.2487 9.30599 43.1315 9.20443 42.9727 9.12891C42.8138 9.05078 42.6094 9.01171 42.3594 9.01171C42.1719 9.01171 42.0013 9.04557 41.8477 9.11328C41.694 9.18099 41.5716 9.27604 41.4805 9.39844C41.3919 9.52083 41.3477 9.66536 41.3477 9.83203H40.3672C40.3672 9.58464 40.4193 9.36327 40.5234 9.16796C40.6302 8.97004 40.7747 8.80207 40.957 8.66405C41.1419 8.52603 41.3542 8.42057 41.5938 8.34766C41.8359 8.27214 42.0911 8.23438 42.3594 8.23438C42.6719 8.23438 42.9544 8.26953 43.207 8.33984C43.4596 8.40755 43.6771 8.50911 43.8594 8.64453C44.0417 8.77995 44.181 8.94922 44.2773 9.15234C44.3737 9.35286 44.4219 9.58593 44.4219 9.85155C44.4219 10.0469 44.3763 10.2305 44.2852 10.4023C44.1966 10.5742 44.069 10.7253 43.9023 10.8555C43.7357 10.9857 43.5352 11.0885 43.3008 11.1641C43.069 11.237 42.8112 11.2734 42.5273 11.2734ZM41.7383 10.9336H42.5273C42.8424 10.9336 43.1224 10.9661 43.3672 11.0312C43.612 11.0964 43.819 11.1914 43.9883 11.3164C44.1576 11.4414 44.2865 11.5964 44.375 11.7812C44.4635 11.9635 44.5078 12.1732 44.5078 12.4102C44.5078 12.6758 44.4544 12.9128 44.3477 13.1211C44.2435 13.3268 44.0951 13.5013 43.9023 13.6445C43.7096 13.7878 43.4818 13.8958 43.2188 13.9688C42.9583 14.0417 42.6719 14.0781 42.3594 14.0781C42.1068 14.0781 41.8568 14.0469 41.6094 13.9844C41.3646 13.9193 41.1419 13.8203 40.9414 13.6875C40.7435 13.5521 40.5846 13.3802 40.4648 13.1719C40.3451 12.9635 40.2852 12.7135 40.2852 12.4219H41.2695C41.2695 12.5833 41.3151 12.7318 41.4062 12.8672C41.5 13 41.6276 13.1068 41.7891 13.1875C41.9531 13.2656 42.1432 13.3047 42.3594 13.3047C42.6068 13.3047 42.8164 13.2656 42.9883 13.1875C43.1628 13.1094 43.2956 13.0026 43.3867 12.8672C43.4805 12.7318 43.5273 12.5794 43.5273 12.4102C43.5273 12.2487 43.5026 12.1094 43.4531 11.9922C43.4062 11.8724 43.3359 11.776 43.2422 11.7031C43.1484 11.6276 43.0326 11.5716 42.8945 11.5352C42.7565 11.4987 42.5977 11.4805 42.418 11.4805H41.7383V10.9336ZM48.2266 13.1523V11.1367C48.2266 10.9857 48.1992 10.8555 48.1445 10.7461C48.0898 10.6367 48.0065 10.5521 47.8945 10.4922C47.7852 10.4323 47.6471 10.4023 47.4805 10.4023C47.3268 10.4023 47.194 10.4284 47.082 10.4805C46.9701 10.5326 46.8828 10.6029 46.8203 10.6914C46.7578 10.7799 46.7266 10.8802 46.7266 10.9922H45.7891C45.7891 10.8255 45.8294 10.6641 45.9102 10.5078C45.9909 10.3516 46.1081 10.2122 46.2617 10.0898C46.4154 9.96745 46.599 9.87109 46.8125 9.80078C47.026 9.73047 47.2656 9.6953 47.5312 9.6953C47.849 9.6953 48.1302 9.74869 48.375 9.85546C48.6224 9.96223 48.8164 10.1237 48.957 10.3398C49.1003 10.5534 49.1719 10.8216 49.1719 11.1445V13.0234C49.1719 13.2161 49.1849 13.3893 49.2109 13.543C49.2396 13.694 49.2799 13.8255 49.332 13.9375V14H48.3672C48.3229 13.8984 48.2878 13.7695 48.2617 13.6133C48.2383 13.4544 48.2266 13.3008 48.2266 13.1523ZM48.3633 11.4297L48.3711 12.0117H47.6953C47.5208 12.0117 47.3672 12.0286 47.2344 12.0625C47.1016 12.0938 46.9909 12.1406 46.9023 12.2031C46.8138 12.2656 46.7474 12.3411 46.7031 12.4297C46.6589 12.5182 46.6367 12.6185 46.6367 12.7305C46.6367 12.8424 46.6628 12.9453 46.7148 13.0391C46.7669 13.1302 46.8424 13.2018 46.9414 13.2539C47.043 13.306 47.1654 13.332 47.3086 13.332C47.5013 13.332 47.6693 13.293 47.8125 13.2148C47.9583 13.1341 48.0729 13.0365 48.1562 12.9219C48.2396 12.8047 48.2839 12.694 48.2891 12.5898L48.5938 13.0078C48.5625 13.1146 48.5091 13.2292 48.4336 13.3516C48.3581 13.474 48.2591 13.5911 48.1367 13.7031C48.0169 13.8125 47.8724 13.9023 47.7031 13.9727C47.5365 14.043 47.3438 14.0781 47.125 14.0781C46.849 14.0781 46.6029 14.0234 46.3867 13.9141C46.1706 13.8021 46.0013 13.6523 45.8789 13.4648C45.7565 13.2747 45.6953 13.0599 45.6953 12.8203C45.6953 12.5964 45.737 12.3984 45.8203 12.2266C45.9062 12.0521 46.0312 11.9062 46.1953 11.7891C46.362 11.6719 46.5651 11.5833 46.8047 11.5234C47.0443 11.4609 47.3177 11.4297 47.625 11.4297H48.3633ZM53.4688 9.77344V10.5234H51.625V14H50.6836V9.77344H53.4688ZM55.4609 10.5859V15.625H54.5195V9.77344H55.3867L55.4609 10.5859ZM58.2148 11.8477V11.9297C58.2148 12.237 58.1784 12.5221 58.1055 12.7852C58.0352 13.0456 57.9297 13.2734 57.7891 13.4688C57.651 13.6615 57.4805 13.8112 57.2773 13.918C57.0742 14.0247 56.8398 14.0781 56.5742 14.0781C56.3112 14.0781 56.0807 14.0299 55.8828 13.9336C55.6875 13.8346 55.5221 13.6953 55.3867 13.5156C55.2513 13.3359 55.1419 13.125 55.0586 12.8828C54.9779 12.638 54.9206 12.3698 54.8867 12.0781V11.7617C54.9206 11.4518 54.9779 11.1706 55.0586 10.918C55.1419 10.6654 55.2513 10.4479 55.3867 10.2656C55.5221 10.0833 55.6875 9.94271 55.8828 9.84375C56.0781 9.74479 56.306 9.6953 56.5664 9.6953C56.832 9.6953 57.0677 9.74739 57.2734 9.85155C57.4792 9.95311 57.6523 10.099 57.793 10.2891C57.9336 10.4766 58.0391 10.7031 58.1094 10.9688C58.1797 11.2318 58.2148 11.5247 58.2148 11.8477ZM57.2734 11.9297V11.8477C57.2734 11.6523 57.2552 11.4714 57.2188 11.3047C57.1823 11.1354 57.125 10.987 57.0469 10.8594C56.9688 10.7318 56.8685 10.6328 56.7461 10.5625C56.6263 10.4896 56.4818 10.4531 56.3125 10.4531C56.1458 10.4531 56.0026 10.4818 55.8828 10.5391C55.763 10.5938 55.6628 10.6706 55.582 10.7695C55.5013 10.8685 55.4388 10.9844 55.3945 11.1172C55.3503 11.2474 55.319 11.3893 55.3008 11.543V12.3008C55.332 12.4883 55.3854 12.6602 55.4609 12.8164C55.5365 12.9727 55.6432 13.0977 55.7812 13.1914C55.9219 13.2826 56.1016 13.3281 56.3203 13.3281C56.4896 13.3281 56.6341 13.2917 56.7539 13.2188C56.8737 13.1458 56.9714 13.0456 57.0469 12.918C57.125 12.7878 57.1823 12.638 57.2188 12.4688C57.2552 12.2995 57.2734 12.1198 57.2734 11.9297ZM60.6953 13.5391L61.8438 9.77344H62.8516L61.1562 14.6445C61.1172 14.7487 61.0664 14.862 61.0039 14.9844C60.9414 15.1068 60.8594 15.2227 60.7578 15.332C60.6589 15.444 60.5352 15.5339 60.3867 15.6016C60.2383 15.6719 60.0586 15.707 59.8477 15.707C59.7643 15.707 59.6836 15.6992 59.6055 15.6836C59.5299 15.6706 59.4583 15.6562 59.3906 15.6406L59.3867 14.9219C59.4128 14.9245 59.444 14.9271 59.4805 14.9297C59.5195 14.9323 59.5508 14.9336 59.5742 14.9336C59.7305 14.9336 59.8607 14.9141 59.9648 14.875C60.069 14.8385 60.1536 14.7786 60.2188 14.6953C60.2865 14.612 60.3438 14.5 60.3906 14.3594L60.6953 13.5391ZM60.0469 9.77344L61.0508 12.9375L61.2188 13.9297L60.5664 14.0977L59.0312 9.77344H60.0469ZM65.6406 11.9805H64.8281V11.5039H65.4844C65.651 11.5039 65.7839 11.4818 65.8828 11.4375C65.9844 11.3932 66.056 11.332 66.0977 11.2539C66.1419 11.1732 66.1641 11.0794 66.1641 10.9727C66.1641 10.8789 66.1419 10.7904 66.0977 10.707C66.056 10.6211 65.9844 10.5508 65.8828 10.4961C65.7812 10.4414 65.6432 10.4141 65.4688 10.4141C65.3255 10.4141 65.1966 10.4375 65.082 10.4844C64.9701 10.5312 64.8815 10.5964 64.8164 10.6797C64.7513 10.763 64.7188 10.8594 64.7188 10.9688H63.7773C63.7773 10.7057 63.8516 10.4792 64 10.2891C64.151 10.099 64.3529 9.95311 64.6055 9.85155C64.8581 9.74999 65.1354 9.69921 65.4375 9.69921C65.6953 9.69921 65.9271 9.72656 66.1328 9.78125C66.3385 9.83333 66.513 9.91146 66.6562 10.0156C66.8021 10.1172 66.9128 10.2448 66.9883 10.3984C67.0664 10.5495 67.1055 10.7253 67.1055 10.9258C67.1055 11.069 67.0716 11.2044 67.0039 11.332C66.9362 11.4596 66.8385 11.5729 66.7109 11.6719C66.5833 11.7682 66.4284 11.8438 66.2461 11.8984C66.0664 11.9531 65.8646 11.9805 65.6406 11.9805ZM64.8281 11.707H65.6406C65.8906 11.707 66.112 11.7318 66.3047 11.7812C66.4974 11.8281 66.6589 11.8984 66.7891 11.9922C66.9193 12.0859 67.0169 12.2018 67.082 12.3398C67.1497 12.4753 67.1836 12.6315 67.1836 12.8086C67.1836 13.0065 67.1406 13.1849 67.0547 13.3438C66.9714 13.5 66.8516 13.6328 66.6953 13.7422C66.5417 13.8516 66.3581 13.9349 66.1445 13.9922C65.931 14.0495 65.6953 14.0781 65.4375 14.0781C65.1562 14.0781 64.8828 14.0312 64.6172 13.9375C64.3542 13.8438 64.1367 13.6992 63.9648 13.5039C63.7956 13.306 63.7109 13.0547 63.7109 12.75H64.6523C64.6523 12.8568 64.6849 12.957 64.75 13.0508C64.8151 13.1445 64.9089 13.2214 65.0312 13.2812C65.1536 13.3385 65.3008 13.3672 65.4727 13.3672C65.6497 13.3672 65.7943 13.3398 65.9062 13.2852C66.0182 13.2279 66.1016 13.1536 66.1562 13.0625C66.2109 12.9688 66.2383 12.8698 66.2383 12.7656C66.2383 12.625 66.2109 12.5117 66.1562 12.4258C66.1016 12.3398 66.0182 12.2773 65.9062 12.2383C65.7943 12.1966 65.6536 12.1758 65.4844 12.1758H64.8281V11.707ZM69.457 12.625L71.1172 9.77344H72.0586V14H71.1172V11.1445L69.457 14H68.5156V9.77344H69.457V12.625ZM75.5156 9.77344V14H74.5703V9.77344H75.5156ZM76.9023 9.77344V10.5156H73.207V9.77344H76.9023ZM79.6055 14.0781C79.293 14.0781 79.0104 14.0273 78.7578 13.9258C78.5078 13.8216 78.2943 13.6771 78.1172 13.4922C77.9427 13.3073 77.8086 13.0898 77.7148 12.8398C77.6211 12.5898 77.5742 12.3203 77.5742 12.0312V11.875C77.5742 11.5443 77.6224 11.2448 77.7188 10.9766C77.8151 10.7083 77.9492 10.4792 78.1211 10.2891C78.293 10.0964 78.4961 9.94922 78.7305 9.84766C78.9648 9.74609 79.2188 9.6953 79.4922 9.6953C79.7943 9.6953 80.0586 9.74609 80.2852 9.84766C80.5117 9.94922 80.6992 10.0924 80.8477 10.2773C80.9987 10.4596 81.1107 10.6771 81.1836 10.9297C81.2591 11.1823 81.2969 11.4609 81.2969 11.7656V12.168H78.0312V11.4922H80.3672V11.418C80.362 11.2487 80.3281 11.0898 80.2656 10.9414C80.2057 10.793 80.1133 10.6732 79.9883 10.582C79.8633 10.4909 79.6966 10.4453 79.4883 10.4453C79.332 10.4453 79.1927 10.4792 79.0703 10.5469C78.9505 10.612 78.8503 10.707 78.7695 10.832C78.6888 10.957 78.6263 11.1081 78.582 11.2852C78.5404 11.4596 78.5195 11.6562 78.5195 11.875V12.0312C78.5195 12.2161 78.5443 12.388 78.5938 12.5469C78.6458 12.7031 78.7214 12.8398 78.8203 12.957C78.9193 13.0742 79.0391 13.1667 79.1797 13.2344C79.3203 13.2995 79.4805 13.332 79.6602 13.332C79.8867 13.332 80.0885 13.2865 80.2656 13.1953C80.4427 13.1042 80.5964 12.9753 80.7266 12.8086L81.2227 13.2891C81.1315 13.4219 81.013 13.5495 80.8672 13.6719C80.7214 13.7917 80.543 13.8893 80.332 13.9648C80.1237 14.0404 79.8815 14.0781 79.6055 14.0781ZM87.0781 12.1914H85.7266L85.7188 11.5273H86.8281C87.0104 11.5273 87.1602 11.5091 87.2773 11.4727C87.3971 11.4362 87.4857 11.3815 87.543 11.3086C87.6003 11.2331 87.6289 11.1419 87.6289 11.0352C87.6289 10.9466 87.612 10.8698 87.5781 10.8047C87.5443 10.737 87.4922 10.6823 87.4219 10.6406C87.3542 10.5964 87.2682 10.5651 87.1641 10.5469C87.0625 10.526 86.944 10.5156 86.8086 10.5156H86.0391V14H85.0977V9.77344H86.8086C87.0794 9.77344 87.3229 9.79688 87.5391 9.84375C87.7578 9.89062 87.944 9.96224 88.0977 10.0586C88.2513 10.1549 88.3685 10.2773 88.4492 10.4258C88.5326 10.5716 88.5742 10.7435 88.5742 10.9414C88.5742 11.0716 88.5456 11.194 88.4883 11.3086C88.4336 11.4232 88.3516 11.5247 88.2422 11.6133C88.1328 11.7018 87.9987 11.7747 87.8398 11.832C87.681 11.8867 87.4987 11.9206 87.293 11.9336L87.0781 12.1914ZM87.0781 14H85.4531L85.8281 13.2578H87.0781C87.2448 13.2578 87.3828 13.237 87.4922 13.1953C87.6016 13.1536 87.6823 13.0938 87.7344 13.0156C87.7891 12.9349 87.8164 12.8398 87.8164 12.7305C87.8164 12.6185 87.7904 12.5221 87.7383 12.4414C87.6862 12.3607 87.6055 12.2995 87.4961 12.2578C87.3893 12.2135 87.25 12.1914 87.0781 12.1914H86.0039L86.0117 11.5273H87.2891L87.5586 11.7852C87.8268 11.8034 88.0495 11.8607 88.2266 11.957C88.4036 12.0534 88.5365 12.1745 88.625 12.3203C88.7135 12.4661 88.7578 12.625 88.7578 12.7969C88.7578 12.9948 88.7201 13.1693 88.6445 13.3203C88.5716 13.4714 88.4622 13.5977 88.3164 13.6992C88.1732 13.7982 87.9974 13.8737 87.7891 13.9258C87.5807 13.9753 87.3438 14 87.0781 14Z" fill="white"/>
</g>
</g>
</g>
<defs>
<clipPath id="clip0_73_3217">
<rect width="124" height="40" fill="white"/>
</clipPath>
<clipPath id="clip1_73_3217">
<rect width="124" height="40" fill="white"/>
</clipPath>
<clipPath id="clip2_73_3217">
<rect width="124" height="40" fill="white"/>
</clipPath>
</defs>
</svg>
