<svg width="124" height="45" viewBox="0 0 124 45" fill="none" xmlns="http://www.w3.org/2000/svg">
<g clip-path="url(#clip0_73_3225)">
<g clip-path="url(#clip1_73_3225)">
<g clip-path="url(#clip2_73_3225)">
<path d="M116 0.389648H8C3.58172 0.389648 0 3.97137 0 8.38965V32.3896C0 36.8079 3.58172 40.3896 8 40.3896H116C120.418 40.3896 124 36.8079 124 32.3896V8.38965C124 3.97137 120.418 0.389648 116 0.389648Z" fill="black"/>
<path d="M14.5379 13.859C14.5374 13.7963 14.6153 13.663 14.7112 13.5628C14.9392 13.3245 15.1625 13.3321 15.379 13.5856C15.4753 13.6984 15.9585 14.5625 16.4529 15.506C17.1426 16.8226 17.3842 17.2106 17.4916 17.1741C17.5686 17.148 18.0381 16.9767 18.5349 16.7936C19.807 16.3248 21.0408 16.1095 22.4698 16.1065C24.2066 16.1031 25.4565 16.3392 26.9429 16.9516C27.3388 17.1147 27.6227 17.2442 27.6673 17.1972C27.688 17.1755 28.2023 16.2717 28.7215 15.2954C29.4749 13.8783 29.7127 13.5028 29.9006 13.4339C30.0864 13.3655 30.1732 13.3827 30.3129 13.5149C30.4102 13.6069 30.4899 13.7615 30.4899 13.8584C30.4899 13.9554 30.0584 14.8492 29.531 15.8446C29.0036 16.84 28.5721 17.6733 28.5721 17.6963C28.5721 17.7194 28.778 17.8701 29.0297 18.0312C32.1452 19.7965 33.7207 24.2033 34 27.3896H22.382H11C11 25.93 11.3378 23.8271 11.7419 22.913C12.5618 21.0584 14.0654 19.3864 15.692 18.2637C16.1115 17.974 16.4547 17.7048 16.4547 17.6653C16.4547 17.6259 16.0237 16.7789 15.4969 15.7831C14.9701 14.7875 14.5385 13.9217 14.5379 13.859Z" fill="#32DE84"/>
<path d="M17.8912 22.5979C17.8912 23.1622 17.4535 23.6197 16.9136 23.6197C16.3737 23.6197 15.936 23.1622 15.936 22.5979C15.936 22.0336 16.3737 21.5762 16.9136 21.5762C17.4535 21.5762 17.8912 22.0336 17.8912 22.5979Z" fill="black"/>
<path d="M29.0641 22.5979C29.0641 23.1622 28.6264 23.6197 28.0865 23.6197C27.5466 23.6197 27.1089 23.1622 27.1089 22.5979C27.1089 22.0336 27.5466 21.5762 28.0865 21.5762C28.6264 21.5762 29.0641 22.0336 29.0641 22.5979Z" fill="black"/>
<path d="M51.9039 28.1173H47.2479L46.4479 30.3893H44.5439L48.5279 19.2533H50.6399L54.6239 30.3893H52.7039L51.9039 28.1173ZM51.3919 26.6293L49.5839 21.4613L47.7599 26.6293H51.3919ZM60.8042 21.4293C61.4975 21.4293 62.1162 21.5733 62.6602 21.8613C63.2148 22.1493 63.6468 22.576 63.9562 23.1413C64.2655 23.7066 64.4202 24.3893 64.4202 25.1893V30.3893H62.6122V25.4613C62.6122 24.672 62.4148 24.0693 62.0202 23.6533C61.6255 23.2266 61.0868 23.0133 60.4042 23.0133C59.7215 23.0133 59.1775 23.2266 58.7722 23.6533C58.3775 24.0693 58.1802 24.672 58.1802 25.4613V30.3893H56.3562V21.5733H58.1802V22.5813C58.4788 22.2186 58.8575 21.936 59.3162 21.7333C59.7855 21.5306 60.2815 21.4293 60.8042 21.4293ZM66.1388 25.9413C66.1388 25.056 66.3201 24.272 66.6828 23.5893C67.0561 22.9066 67.5574 22.3786 68.1868 22.0053C68.8268 21.6213 69.5361 21.4293 70.3148 21.4293C70.8909 21.4293 71.4561 21.5573 72.0108 21.8133C72.5761 22.0586 73.0241 22.3893 73.3548 22.8053V18.5493H75.1948V30.3893H73.3548V29.0613C73.0561 29.488 72.6402 29.84 72.1068 30.1173C71.5842 30.3946 70.9814 30.5333 70.2988 30.5333C69.5308 30.5333 68.8268 30.3413 68.1868 29.9573C67.5574 29.5626 67.0561 29.0186 66.6828 28.3253C66.3201 27.6213 66.1388 26.8266 66.1388 25.9413ZM73.3548 25.9733C73.3548 25.3653 73.2268 24.8373 72.9708 24.3893C72.7254 23.9413 72.4002 23.6 71.9949 23.3653C71.5895 23.1306 71.1521 23.0133 70.6828 23.0133C70.2134 23.0133 69.7761 23.1306 69.3708 23.3653C68.9655 23.5893 68.6348 23.9253 68.3788 24.3733C68.1334 24.8106 68.0108 25.3333 68.0108 25.9413C68.0108 26.5493 68.1334 27.0826 68.3788 27.5413C68.6348 28 68.9655 28.352 69.3708 28.5973C69.7868 28.832 70.2241 28.9493 70.6828 28.9493C71.1521 28.9493 71.5895 28.832 71.9949 28.5973C72.4002 28.3626 72.7254 28.0213 72.9708 27.5733C73.2268 27.1146 73.3548 26.5813 73.3548 25.9733ZM79.4145 22.8533C79.6812 22.4053 80.0332 22.0586 80.4705 21.8133C80.9185 21.5573 81.4465 21.4293 82.0546 21.4293V23.3173H81.5905C80.8759 23.3173 80.332 23.4986 79.9585 23.8613C79.596 24.224 79.4145 24.8533 79.4145 25.7493V30.3893H77.5905V21.5733H79.4145V22.8533ZM87.5552 30.5333C86.7232 30.5333 85.9712 30.3466 85.2992 29.9733C84.6272 29.5893 84.0992 29.056 83.7152 28.3733C83.3312 27.68 83.1392 26.88 83.1392 25.9733C83.1392 25.0773 83.3365 24.2826 83.7312 23.5893C84.1258 22.896 84.6645 22.3626 85.3472 21.9893C86.0298 21.616 86.7925 21.4293 87.6352 21.4293C88.4778 21.4293 89.2405 21.616 89.9232 21.9893C90.6059 22.3626 91.1445 22.896 91.5392 23.5893C91.9338 24.2826 92.1312 25.0773 92.1312 25.9733C92.1312 26.8693 91.9285 27.664 91.5232 28.3573C91.1178 29.0506 90.5632 29.5893 89.8592 29.9733C89.1658 30.3466 88.3978 30.5333 87.5552 30.5333ZM87.5552 28.9493C88.0245 28.9493 88.4618 28.8373 88.8672 28.6133C89.2832 28.3893 89.6192 28.0533 89.8752 27.6053C90.1312 27.1573 90.2592 26.6133 90.2592 25.9733C90.2592 25.3333 90.1365 24.7946 89.8912 24.3573C89.6458 23.9093 89.3205 23.5733 88.9152 23.3493C88.5098 23.1253 88.0725 23.0133 87.6032 23.0133C87.1339 23.0133 86.6965 23.1253 86.2912 23.3493C85.8965 23.5733 85.5818 23.9093 85.3472 24.3573C85.1125 24.7946 84.9952 25.3333 84.9952 25.9733C84.9952 26.9226 85.2352 27.6586 85.7152 28.1813C86.2058 28.6933 86.8192 28.9493 87.5552 28.9493ZM94.8623 20.4053C94.5316 20.4053 94.2543 20.2933 94.0303 20.0693C93.8064 19.8453 93.6943 19.568 93.6943 19.2373C93.6943 18.9066 93.8064 18.6293 94.0303 18.4053C94.2543 18.1813 94.5316 18.0693 94.8623 18.0693C95.1823 18.0693 95.4543 18.1813 95.6783 18.4053C95.9023 18.6293 96.0143 18.9066 96.0143 19.2373C96.0143 19.568 95.9023 19.8453 95.6783 20.0693C95.4543 20.2933 95.1823 20.4053 94.8623 20.4053ZM95.7583 21.5733V30.3893H93.9343V21.5733H95.7583ZM97.545 25.9413C97.545 25.056 97.7265 24.272 98.0891 23.5893C98.4625 22.9066 98.9637 22.3786 99.593 22.0053C100.233 21.6213 100.942 21.4293 101.721 21.4293C102.297 21.4293 102.862 21.5573 103.417 21.8133C103.982 22.0586 104.43 22.3893 104.761 22.8053V18.5493H106.601V30.3893H104.761V29.0613C104.462 29.488 104.046 29.84 103.513 30.1173C102.99 30.3946 102.388 30.5333 101.705 30.5333C100.937 30.5333 100.233 30.3413 99.593 29.9573C98.9637 29.5626 98.4625 29.0186 98.0891 28.3253C97.7265 27.6213 97.545 26.8266 97.545 25.9413ZM104.761 25.9733C104.761 25.3653 104.633 24.8373 104.377 24.3893C104.132 23.9413 103.806 23.6 103.401 23.3653C102.996 23.1306 102.558 23.0133 102.089 23.0133C101.62 23.0133 101.182 23.1306 100.777 23.3653C100.372 23.5893 100.041 23.9253 99.785 24.3733C99.5397 24.8106 99.417 25.3333 99.417 25.9413C99.417 26.5493 99.5397 27.0826 99.785 27.5413C100.041 28 100.372 28.352 100.777 28.5973C101.193 28.832 101.63 28.9493 102.089 28.9493C102.558 28.9493 102.996 28.832 103.401 28.5973C103.806 28.3626 104.132 28.0213 104.377 27.5733C104.633 27.1146 104.761 26.5813 104.761 25.9733Z" fill="white"/>
<path d="M49.0703 13.6123V14.3896H44.8789V13.6123H49.0703ZM45.1211 13.6123V15.788H44.1836L44.1484 13.6123H45.1211ZM49.8281 13.6123L49.7695 15.7841H48.8477V13.6123H49.8281ZM48.3828 8.70215V9.4834H45.7578V8.70215H48.3828ZM49.1328 8.70215V14.3896H48.1562V8.70215H49.1328ZM45.5625 8.70215H46.543L46.4062 11.0068C46.3854 11.3714 46.3477 11.6995 46.293 11.9912C46.2383 12.2828 46.1719 12.5445 46.0938 12.7763C46.0182 13.0055 45.9323 13.2086 45.8359 13.3857C45.7396 13.5602 45.6367 13.7112 45.5273 13.8388C45.418 13.9664 45.306 14.0758 45.1914 14.1669C45.0794 14.2555 44.9688 14.3297 44.8594 14.3896H44.3359V13.6123H44.5898C44.6602 13.5472 44.7383 13.4534 44.8242 13.331C44.9102 13.206 44.9935 13.0432 45.0742 12.8427C45.1576 12.6396 45.2305 12.3883 45.293 12.0888C45.3555 11.7893 45.3984 11.4287 45.4219 11.0068L45.5625 8.70215ZM50.7969 12.3232V12.2334C50.7969 11.9287 50.8411 11.6461 50.9297 11.3857C51.0182 11.1227 51.1458 10.8948 51.3125 10.7021C51.4818 10.5068 51.6875 10.3558 51.9297 10.249C52.1745 10.1396 52.4505 10.085 52.7578 10.085C53.0677 10.085 53.3438 10.1396 53.5859 10.249C53.8307 10.3558 54.0378 10.5068 54.207 10.7021C54.3763 10.8948 54.5052 11.1227 54.5938 11.3857C54.6823 11.6461 54.7266 11.9287 54.7266 12.2334V12.3232C54.7266 12.6279 54.6823 12.9104 54.5938 13.1708C54.5052 13.4313 54.3763 13.6591 54.207 13.8544C54.0378 14.0472 53.832 14.1982 53.5898 14.3076C53.3477 14.4143 53.0729 14.4677 52.7656 14.4677C52.4557 14.4677 52.1784 14.4143 51.9336 14.3076C51.6914 14.1982 51.4857 14.0472 51.3164 13.8544C51.1471 13.6591 51.0182 13.4313 50.9297 13.1708C50.8411 12.9104 50.7969 12.6279 50.7969 12.3232ZM51.7383 12.2334V12.3232C51.7383 12.5133 51.7578 12.693 51.7969 12.8623C51.8359 13.0315 51.8971 13.18 51.9805 13.3076C52.0638 13.4352 52.1706 13.5354 52.3008 13.6084C52.431 13.6813 52.5859 13.7177 52.7656 13.7177C52.9401 13.7177 53.0911 13.6813 53.2188 13.6084C53.349 13.5354 53.4557 13.4352 53.5391 13.3076C53.6224 13.18 53.6836 13.0315 53.7227 12.8623C53.7643 12.693 53.7852 12.5133 53.7852 12.3232V12.2334C53.7852 12.0458 53.7643 11.8688 53.7227 11.7021C53.6836 11.5328 53.6211 11.3831 53.5352 11.2529C53.4518 11.1227 53.3451 11.0211 53.2148 10.9482C53.0872 10.8727 52.9349 10.8349 52.7578 10.8349C52.5807 10.8349 52.4271 10.8727 52.2969 10.9482C52.1693 11.0211 52.0638 11.1227 51.9805 11.2529C51.8971 11.3831 51.8359 11.5328 51.7969 11.7021C51.7578 11.8688 51.7383 12.0458 51.7383 12.2334ZM57.7422 13.7177C57.8958 13.7177 58.0339 13.6878 58.1562 13.6279C58.2812 13.5654 58.3815 13.4794 58.457 13.3701C58.5352 13.2607 58.5781 13.1344 58.5859 12.9912H59.4727C59.4674 13.2646 59.3867 13.5133 59.2305 13.7373C59.0742 13.9612 58.8672 14.1396 58.6094 14.2724C58.3516 14.4026 58.0664 14.4677 57.7539 14.4677C57.431 14.4677 57.1497 14.413 56.9102 14.3037C56.6706 14.1917 56.4714 14.038 56.3125 13.8427C56.1536 13.6474 56.0339 13.4222 55.9531 13.1669C55.875 12.9117 55.8359 12.6383 55.8359 12.3466V12.2099C55.8359 11.9182 55.875 11.6448 55.9531 11.3896C56.0339 11.1318 56.1536 10.9052 56.3125 10.7099C56.4714 10.5146 56.6706 10.3623 56.9102 10.2529C57.1497 10.1409 57.4297 10.085 57.75 10.085C58.0885 10.085 58.3854 10.1527 58.6406 10.2881C58.8958 10.4208 59.0964 10.607 59.2422 10.8466C59.3906 11.0836 59.4674 11.3597 59.4727 11.6748H58.5859C58.5781 11.5185 58.5391 11.3779 58.4688 11.2529C58.401 11.1253 58.3047 11.0237 58.1797 10.9482C58.0573 10.8727 57.9102 10.8349 57.7383 10.8349C57.5482 10.8349 57.3906 10.874 57.2656 10.9521C57.1406 11.0276 57.043 11.1318 56.9727 11.2646C56.9023 11.3948 56.8516 11.5419 56.8203 11.706C56.7917 11.8675 56.7773 12.0354 56.7773 12.2099V12.3466C56.7773 12.5211 56.7917 12.6904 56.8203 12.8544C56.849 13.0185 56.8984 13.1656 56.9688 13.2958C57.0417 13.4235 57.1406 13.5263 57.2656 13.6044C57.3906 13.68 57.5495 13.7177 57.7422 13.7177ZM62.6562 10.1631V14.3896H61.7109V10.1631H62.6562ZM64.043 10.1631V10.9052H60.3477V10.1631H64.043ZM66.4453 13.9287L67.5938 10.1631H68.6016L66.9062 15.0341C66.8672 15.1383 66.8164 15.2516 66.7539 15.374C66.6914 15.4964 66.6094 15.6123 66.5078 15.7216C66.4089 15.8336 66.2852 15.9235 66.1367 15.9912C65.9883 16.0615 65.8086 16.0966 65.5977 16.0966C65.5143 16.0966 65.4336 16.0888 65.3555 16.0732C65.2799 16.0602 65.2083 16.0458 65.1406 16.0302L65.1367 15.3115C65.1628 15.3141 65.194 15.3167 65.2305 15.3193C65.2695 15.3219 65.3008 15.3232 65.3242 15.3232C65.4805 15.3232 65.6107 15.3037 65.7148 15.2646C65.819 15.2281 65.9036 15.1682 65.9688 15.0849C66.0365 15.0016 66.0938 14.8896 66.1406 14.749L66.4453 13.9287ZM65.7969 10.1631L66.8008 13.3271L66.9688 14.3193L66.3164 14.4873L64.7812 10.1631H65.7969ZM72.4766 10.1631V10.913H70.3906V10.1631H72.4766ZM70.6133 10.1631V14.3896H69.6719V10.1631H70.6133ZM73.2148 10.1631V14.3896H72.2695V10.1631H73.2148ZM77.5977 11.9287V12.6708H75.4102V11.9287H77.5977ZM75.6836 10.1631V14.3896H74.7422V10.1631H75.6836ZM78.2773 10.1631V14.3896H77.3359V10.1631H78.2773ZM79.6016 12.3232V12.2334C79.6016 11.9287 79.6458 11.6461 79.7344 11.3857C79.8229 11.1227 79.9505 10.8948 80.1172 10.7021C80.2865 10.5068 80.4922 10.3558 80.7344 10.249C80.9792 10.1396 81.2552 10.085 81.5625 10.085C81.8724 10.085 82.1484 10.1396 82.3906 10.249C82.6354 10.3558 82.8424 10.5068 83.0117 10.7021C83.181 10.8948 83.3099 11.1227 83.3984 11.3857C83.487 11.6461 83.5312 11.9287 83.5312 12.2334V12.3232C83.5312 12.6279 83.487 12.9104 83.3984 13.1708C83.3099 13.4313 83.181 13.6591 83.0117 13.8544C82.8424 14.0472 82.6367 14.1982 82.3945 14.3076C82.1523 14.4143 81.8776 14.4677 81.5703 14.4677C81.2604 14.4677 80.9831 14.4143 80.7383 14.3076C80.4961 14.1982 80.2904 14.0472 80.1211 13.8544C79.9518 13.6591 79.8229 13.4313 79.7344 13.1708C79.6458 12.9104 79.6016 12.6279 79.6016 12.3232ZM80.543 12.2334V12.3232C80.543 12.5133 80.5625 12.693 80.6016 12.8623C80.6406 13.0315 80.7018 13.18 80.7852 13.3076C80.8685 13.4352 80.9753 13.5354 81.1055 13.6084C81.2357 13.6813 81.3906 13.7177 81.5703 13.7177C81.7448 13.7177 81.8958 13.6813 82.0234 13.6084C82.1536 13.5354 82.2604 13.4352 82.3438 13.3076C82.4271 13.18 82.4883 13.0315 82.5273 12.8623C82.569 12.693 82.5898 12.5133 82.5898 12.3232V12.2334C82.5898 12.0458 82.569 11.8688 82.5273 11.7021C82.4883 11.5328 82.4258 11.3831 82.3398 11.2529C82.2565 11.1227 82.1497 11.0211 82.0195 10.9482C81.8919 10.8727 81.7396 10.8349 81.5625 10.8349C81.3854 10.8349 81.2318 10.8727 81.1016 10.9482C80.974 11.0211 80.8685 11.1227 80.7852 11.2529C80.7018 11.3831 80.6406 11.5328 80.6016 11.7021C80.5625 11.8688 80.543 12.0458 80.543 12.2334ZM88.0781 10.1631H89.0195L88.9727 11.6513C88.9596 12.0836 88.9102 12.4547 88.8242 12.7646C88.7383 13.0745 88.6263 13.3362 88.4883 13.5498C88.3503 13.7607 88.194 13.9339 88.0195 14.0693C87.8477 14.2047 87.6667 14.3115 87.4766 14.3896H87.1992V13.6474L87.332 13.6396C87.444 13.5198 87.5404 13.4 87.6211 13.2802C87.7044 13.1578 87.7747 13.0237 87.832 12.8779C87.8893 12.7294 87.9336 12.5563 87.9648 12.3584C87.9987 12.1604 88.0208 11.9248 88.0312 11.6513L88.0781 10.1631ZM88.3281 10.1631H91.0078V14.3896H90.0703V10.9599H88.3281V10.1631ZM86.9844 13.6396H91.5859V15.6474H90.6445V14.3896H87.9375V15.6474H86.9805L86.9844 13.6396ZM95.5977 10.1631V10.913H93.5352V10.1631H95.5977ZM96.3359 10.1631V14.3896H95.3945V10.1631H96.3359ZM93.3047 10.1631H94.2344L94.1211 12.2529C94.1055 12.5628 94.0742 12.8362 94.0273 13.0732C93.9831 13.3076 93.9232 13.5094 93.8477 13.6787C93.7721 13.8453 93.6797 13.9807 93.5703 14.0849C93.4609 14.1891 93.3333 14.2659 93.1875 14.3154C93.0417 14.3649 92.8776 14.3896 92.6953 14.3896H92.4023L92.3984 13.6162L92.5469 13.6044C92.6432 13.5966 92.7266 13.5719 92.7969 13.5302C92.8672 13.486 92.9271 13.4235 92.9766 13.3427C93.0286 13.262 93.0703 13.1578 93.1016 13.0302C93.1354 12.9026 93.1615 12.7516 93.1797 12.5771C93.2005 12.4026 93.2161 12.1995 93.2266 11.9677L93.3047 10.1631ZM98.7266 12.3232H99.7031L98.5039 14.3896H97.5312L98.7266 12.3232ZM99.4141 10.1631H101.227V14.3896H100.289V10.9052H99.4141C99.237 10.9052 99.0911 10.9365 98.9766 10.999C98.862 11.0589 98.7773 11.1383 98.7227 11.2373C98.668 11.3336 98.6406 11.4326 98.6406 11.5341C98.6406 11.6357 98.6654 11.7334 98.7148 11.8271C98.7669 11.9208 98.8464 11.9977 98.9531 12.0576C99.0625 12.1175 99.1992 12.1474 99.3633 12.1474H100.605V12.8349H99.3633C99.1029 12.8349 98.8698 12.8024 98.6641 12.7373C98.4583 12.6695 98.2839 12.5771 98.1406 12.4599C97.9974 12.3401 97.888 12.2008 97.8125 12.0419C97.737 11.8805 97.6992 11.7047 97.6992 11.5146C97.6992 11.3193 97.7383 11.1396 97.8164 10.9755C97.8945 10.8115 98.0065 10.6682 98.1523 10.5458C98.3008 10.4235 98.4805 10.3297 98.6914 10.2646C98.9049 10.1969 99.1458 10.1631 99.4141 10.1631Z" fill="white"/>
</g>
</g>
</g>
<defs>
<clipPath id="clip0_73_3225">
<rect width="124" height="40" fill="white" transform="translate(0 0.389648)"/>
</clipPath>
<clipPath id="clip1_73_3225">
<rect width="124" height="40" fill="white" transform="translate(0 0.389648)"/>
</clipPath>
<clipPath id="clip2_73_3225">
<rect width="124" height="40" fill="white" transform="translate(0 0.389648)"/>
</clipPath>
</defs>
</svg>
