<svg width="21" height="21" viewBox="0 0 21 21" fill="none" xmlns="http://www.w3.org/2000/svg">
<path d="M13.4001 0.280273H7.26008C1.66008 0.280273 0.330078 1.61027 0.330078 7.21027V13.3503C0.330078 18.9503 1.66008 20.2803 7.26008 20.2803H13.4001C19.0001 20.2803 20.3301 18.9503 20.3301 13.3503V7.21027C20.3301 1.61027 19.0001 0.280273 13.4001 0.280273ZM16.4801 14.5503H15.0201C14.4701 14.5503 14.3001 14.1003 13.3301 13.1103C12.4501 12.2803 12.0701 12.1603 11.8601 12.1603C11.5701 12.1603 11.4801 12.2403 11.4801 12.6603V13.9703C11.4801 14.3203 11.3701 14.5403 10.4401 14.5403C8.90008 14.5403 7.19008 13.6003 5.99008 11.8703C4.18008 9.33027 3.69008 7.41027 3.69008 7.03027C3.69008 6.82027 3.76008 6.62027 4.18008 6.62027H5.65008C6.02008 6.62027 6.16008 6.78027 6.30008 7.18027C7.02008 9.28027 8.22008 11.0803 8.71008 11.0803C8.90008 11.0803 8.98008 10.9903 8.98008 10.5303V8.38027C8.93008 7.40027 8.40008 7.31027 8.40008 6.96027C8.40008 6.78027 8.54008 6.62027 8.77008 6.62027H11.0601C11.3701 6.62027 11.4801 6.78027 11.4801 7.16027V10.0503C11.4801 10.3603 11.6101 10.4703 11.7101 10.4703C11.8901 10.4703 12.0501 10.3603 12.3801 10.0203C13.4301 8.85027 14.1801 7.04027 14.1801 7.04027C14.2801 6.83027 14.4401 6.63027 14.8301 6.63027H16.2601C16.7001 6.63027 16.8001 6.86027 16.7001 7.17027C16.5201 8.02027 14.7401 10.5303 14.7601 10.5303C14.6001 10.7803 14.5401 10.8903 14.7601 11.1803C14.9101 11.3903 15.4201 11.8303 15.7601 12.2203C16.3801 12.9303 16.8601 13.5203 16.9901 13.9303C17.1001 14.3403 16.9001 14.5503 16.4801 14.5503Z" fill="#595959"/>
</svg>
