<svg width="41" height="41" viewBox="0 0 41 41" fill="none" xmlns="http://www.w3.org/2000/svg">
<path d="M20.98 36.4399C29.82 36.4399 36.98 29.2799 36.98 20.4399C36.98 11.5999 29.82 4.43994 20.98 4.43994C12.14 4.43994 4.97998 11.5999 4.97998 20.4399C4.97998 29.2799 12.14 36.4399 20.98 36.4399ZM20.98 0.439941C32.02 0.439941 40.98 9.39994 40.98 20.4399C40.98 31.4799 32.02 40.4399 20.98 40.4399C9.91998 40.4399 0.97998 31.4399 0.97998 20.4399C0.97998 9.39994 9.93998 0.439941 20.98 0.439941ZM21.98 10.4399V20.9399L30.98 26.2799L29.48 28.7399L18.98 22.4399V10.4399H21.98Z" fill="#257AE8"/>
</svg>
