<svg width="49" height="29" viewBox="0 0 49 29" fill="none" xmlns="http://www.w3.org/2000/svg">
<path d="M24.6599 0.439941C22.8033 0.439941 21.0229 1.17744 19.7102 2.4902C18.3974 3.80294 17.6599 5.58342 17.6599 7.43994C17.6599 9.29646 18.3974 11.0769 19.7102 12.3897C21.0229 13.7025 22.8033 14.4399 24.6599 14.4399C26.5165 14.4399 28.2969 13.7025 29.6097 12.3897C30.9225 11.0769 31.6599 9.29646 31.6599 7.43994C31.6599 5.58342 30.9225 3.80294 29.6097 2.4902C28.2969 1.17744 26.5165 0.439941 24.6599 0.439941ZM24.6599 4.43994C25.4555 4.43994 26.2187 4.75602 26.7813 5.31862C27.3439 5.88122 27.6599 6.6443 27.6599 7.43994C27.6599 8.23558 27.3439 8.99866 26.7813 9.56126C26.2187 10.1239 25.4555 10.4399 24.6599 10.4399C23.8643 10.4399 23.1011 10.1239 22.5385 9.56126C21.9759 8.99866 21.6599 8.23558 21.6599 7.43994C21.6599 6.6443 21.9759 5.88122 22.5385 5.31862C23.1011 4.75602 23.8643 4.43994 24.6599 4.43994ZM11.6599 6.43994C10.3338 6.43994 9.06205 6.96672 8.12437 7.9044C7.18669 8.84208 6.65991 10.1139 6.65991 11.4399C6.65991 13.3199 7.71991 14.9399 9.23991 15.7999C9.95991 16.1999 10.7799 16.4399 11.6599 16.4399C12.5399 16.4399 13.3599 16.1999 14.0799 15.7999C14.8199 15.3799 15.4399 14.7799 15.8999 14.0599C14.4399 12.1599 13.6599 9.83994 13.6599 7.43994C13.6599 7.25994 13.6599 7.05994 13.6599 6.87994C13.0599 6.59994 12.3799 6.43994 11.6599 6.43994ZM37.6599 6.43994C36.9399 6.43994 36.2599 6.59994 35.6599 6.87994V7.43994C35.6599 9.83994 34.8799 12.1599 33.4199 14.0599C33.6599 14.4399 33.9199 14.7399 34.2199 15.0399C34.5399 15.3399 34.8599 15.5999 35.2399 15.7999C35.9599 16.1999 36.7799 16.4399 37.6599 16.4399C38.5399 16.4399 39.3599 16.1999 40.0799 15.7999C41.5999 14.9399 42.6599 13.3199 42.6599 11.4399C42.6599 10.1139 42.1331 8.84208 41.1955 7.9044C40.2577 6.96672 38.9859 6.43994 37.6599 6.43994ZM24.6599 18.4399C19.9799 18.4399 10.6599 20.7799 10.6599 25.4399V28.4399H38.6599V25.4399C38.6599 20.7799 29.3399 18.4399 24.6599 18.4399ZM10.0799 19.5399C6.21991 19.9999 0.659912 21.9599 0.659912 25.4399V28.4399H6.65991V24.5799C6.65991 22.5599 8.03991 20.8799 10.0799 19.5399ZM39.2399 19.5399C41.2799 20.8799 42.6599 22.5599 42.6599 24.5799V28.4399H48.6599V25.4399C48.6599 21.9599 43.0999 19.9999 39.2399 19.5399ZM24.6599 22.4399C27.7199 22.4399 31.1399 23.4399 33.1199 24.4399H16.1999C18.1799 23.4399 21.5999 22.4399 24.6599 22.4399Z" fill="#257AE8"/>
</svg>
