<svg width="32" height="41" viewBox="0 0 32 41" fill="none" xmlns="http://www.w3.org/2000/svg">
<path fill-rule="evenodd" clip-rule="evenodd" d="M16 16.4399L8 5.23994L11.2 0.439941H20.8L24 5.23994L16 16.4399ZM23 10.0399L20.6 13.4399C25 15.2399 28 19.4399 28 24.4399C28 27.6225 26.7358 30.6747 24.4852 32.9251C22.2348 35.1757 19.1826 36.4399 16 36.4399C12.8174 36.4399 9.76516 35.1757 7.51472 32.9251C5.26428 30.6747 4 27.6225 4 24.4399C4 19.4399 7 15.2399 11.4 13.4399L9 10.0399C3.6 12.6399 0 18.0399 0 24.4399C0 28.6833 1.6857 32.7531 4.6863 35.7537C7.68688 38.7541 11.7565 40.4399 16 40.4399C20.2434 40.4399 24.3132 38.7541 27.3138 35.7537C30.3142 32.7531 32 28.6833 32 24.4399C32 18.0399 28.4 12.6399 23 10.0399Z" fill="#257AE8"/>
</svg>
