<svg width="80" height="80" viewBox="0 0 80 80" fill="none" xmlns="http://www.w3.org/2000/svg">
<path fill-rule="evenodd" clip-rule="evenodd" d="M3.31 61.623C8.00405 56.6773 13.6575 52.741 19.9248 50.0547C26.192 47.3685 32.9413 45.9888 39.76 46C54.16 46 67.098 52.031 76.21 61.623L77.518 63L76.21 64.378C67.098 73.968 54.16 80 39.76 80C25.36 80 12.422 73.969 3.31 64.378L2 63L3.31 61.623ZM7.574 63C15.864 71.025 27.204 76 39.76 76C52.316 76 63.655 71.025 71.945 63C63.3189 54.6407 51.7719 49.9767 39.76 50C27.748 49.9775 16.2009 54.6414 7.574 63ZM25.42 14C25.42 6.265 31.685 0 39.42 0C47.155 0 53.42 6.265 53.42 14V25C53.42 32.735 47.154 39 39.42 39C31.686 39 25.42 32.735 25.42 25V14ZM39.42 4C33.894 4 29.42 8.475 29.42 14V25C29.42 30.525 33.894 35 39.42 35C44.946 35 49.42 30.525 49.42 25V14C49.42 8.475 44.945 4 39.42 4Z" fill="black"/>
<path d="M61.143 5.19957V14.9996H59.323V6.72557H57.25V5.19957H61.143ZM69.443 9.84757C69.9563 10.0809 70.3483 10.3982 70.619 10.7996C70.899 11.1916 71.039 11.6536 71.039 12.1856C71.039 12.7829 70.871 13.3056 70.535 13.7536C70.2083 14.2016 69.7417 14.5469 69.135 14.7896C68.5283 15.0229 67.8237 15.1396 67.021 15.1396C65.817 15.1396 65.513 15.0226 64.907 14.7896C64.309 14.5469 63.847 14.2016 63.521 13.7536C63.031 13.0816 63.031 12.7836 63.031 12.1856C63.031 11.6536 63.1663 11.1916 63.437 10.7996C63.707 10.3982 64.0943 10.0809 64.599 9.84757C64.2274 9.652 63.9136 9.36236 63.689 9.00757C63.48 8.63612 63.3737 8.21572 63.381 7.78957C63.381 7.23957 63.5303 6.7589 63.829 6.34757C64.137 5.93757 64.5663 5.62024 65.117 5.39557C65.943 5.05857 66.302 5.05957 67.021 5.05957C67.749 5.05957 68.3883 5.17157 68.939 5.39557C69.765 5.73157 69.919 5.93657 70.227 6.34757C70.535 6.75857 70.689 7.23857 70.689 7.78957C70.689 8.2469 70.5817 8.64824 70.367 8.99357C70.045 9.51157 69.844 9.62357 69.443 9.84757ZM67.021 6.48757C66.451 6.48757 65.9983 6.6089 65.663 6.85157C65.3363 7.09424 65.173 7.4349 65.173 7.87357C65.173 8.29357 65.3363 8.62957 65.663 8.88157C65.999 9.12424 66.4517 9.24557 67.021 9.24557C67.5997 9.24557 68.057 9.12424 68.393 8.88157C68.729 8.62957 68.897 8.29357 68.897 7.87357C68.897 7.43424 68.7243 7.09357 68.379 6.85157C68.043 6.6089 67.5903 6.48757 67.021 6.48757ZM67.021 13.7116C67.693 13.7116 68.225 13.5716 68.617 13.2916C69.205 12.8716 69.205 12.6246 69.205 12.1296C69.205 11.6442 69.009 11.2616 68.617 10.9816C68.029 10.5616 67.693 10.5616 67.021 10.5616C66.349 10.5616 65.821 10.7016 65.439 10.9816C65.057 11.2616 64.865 11.6446 64.865 12.1296C64.865 12.6242 65.0563 13.0116 65.439 13.2916C66.013 13.7116 66.349 13.7116 67.021 13.7116ZM78.968 10.7996H76.489V13.2496H74.992V10.7996H72.513V9.39957H74.992V6.94957H76.489V9.39957H78.968V10.7996Z" fill="black"/>
</svg>
