<svg width="81" height="80" viewBox="0 0 81 80" fill="none" xmlns="http://www.w3.org/2000/svg">
<g clip-path="url(#clip0_87_135)">
<mask id="mask0_87_135" style="mask-type:luminance" maskUnits="userSpaceOnUse" x="0" y="0" width="81" height="80">
<path d="M0.780029 0H80.78V80H0.780029V0Z" fill="white"/>
</mask>
<g mask="url(#mask0_87_135)">
<path fill-rule="evenodd" clip-rule="evenodd" d="M0.780029 15H80.78V80H0.780029V15ZM4.78003 19V76H76.78V19H4.78003Z" fill="#B89E61"/>
<path fill-rule="evenodd" clip-rule="evenodd" d="M40.78 4C33.605 4 27.78 9.825 27.78 17V23H23.78V17C23.78 7.615 31.395 0 40.78 0C50.165 0 57.78 7.615 57.78 17V23H53.78V17C53.78 9.825 47.955 4 40.78 4Z" fill="#B89E61"/>
<path d="M48.32 51.2499C47.36 49.7799 45.6 48.0999 43.08 46.2399C40.5 44.3499 39.67 43.6699 39.42 43.4299C38.78 42.7899 38.33 42.1999 38.1 41.6799C37.87 41.1599 37.75 40.6199 37.75 40.0799C37.75 39.1899 38.06 38.4599 38.7 37.8599C39.35 37.2499 40.16 36.9499 41.2 36.9499C42 36.9499 42.76 37.1599 43.44 37.5599C44.14 37.9799 45.02 38.8799 46.06 40.2499L46.3601 40.6499L49.5 38.2899L49.21 37.8999C47.86 36.0599 46.54 34.7799 45.31 34.0799C42.88 32.7099 39.86 32.6699 37.47 33.9599C36.31 34.5899 35.39 35.4699 34.75 36.5599C34.11 37.6599 33.78 38.8799 33.78 40.2099C33.78 41.8799 34.33 43.4499 35.4 44.8699C36.02 45.7199 37.52 47.0299 39.98 48.8799C42.31 50.6299 43.93 52.1299 44.8 53.3499C45.39 54.1799 45.69 55.0299 45.69 55.8799C45.69 56.6299 45.49 57.3499 45.09 58.0199C44.7 58.6899 44.11 59.2299 43.35 59.6299C42.58 60.0399 41.74 60.2399 40.87 60.2399C38.82 60.2399 36.97 58.7399 35.35 55.7799L35.1 55.3199L31.8 57.2899L32.03 57.7099C33.26 59.9499 34.64 61.5699 36.12 62.5399C37.62 63.5199 39.31 64.0099 41.14 64.0099C43.53 64.0099 45.59 63.1899 47.26 61.5799C48.94 59.9599 49.79 58.0299 49.79 55.8199C49.79 54.2799 49.29 52.7499 48.32 51.2499Z" fill="#B89E61"/>
</g>
</g>
<defs>
<clipPath id="clip0_87_135">
<rect width="80" height="80" fill="white" transform="translate(0.780029)"/>
</clipPath>
</defs>
</svg>
