<svg width="80" height="80" viewBox="0 0 80 80" fill="none" xmlns="http://www.w3.org/2000/svg">
<path fill-rule="evenodd" clip-rule="evenodd" d="M55 54H60V58H55V54ZM67.93 37H59V33H70.07L79.137 46.6L76.604 58H71V54H73.396L74.863 47.4L67.93 37Z" fill="black"/>
<path fill-rule="evenodd" clip-rule="evenodd" d="M61.025 57.745C60.798 59.623 62.053 61 63.83 61C65.802 61 67.715 59.322 67.975 57.255C68.203 55.377 66.949 54 65.17 54C63.19 54 61.286 55.676 61.025 57.745ZM57.055 57.252C57.558 53.242 61.112 50 65.17 50C69.412 50 72.457 53.541 71.946 57.742L71.945 57.748C71.444 61.76 67.878 65 63.83 65C59.589 65 56.544 61.459 57.055 57.258V57.252ZM22.025 57.745C21.798 59.623 23.053 61 24.83 61C26.802 61 28.716 59.322 28.976 57.255C29.202 55.377 27.948 54 26.17 54C24.19 54 22.286 55.676 22.025 57.745ZM18.055 57.252C18.558 53.242 22.112 50 26.17 50C30.412 50 33.457 53.541 32.946 57.742L32.945 57.748C32.444 61.76 28.878 65 24.83 65C20.589 65 17.544 61.459 18.055 57.258V57.252ZM5 27H26V31H5V27ZM0 37H23V41H0V37Z" fill="black"/>
<path fill-rule="evenodd" clip-rule="evenodd" d="M15 17H64.414L56.657 58H30V54H53.343L59.586 21H15V17Z" fill="black"/>
<path d="M9.44006 54L10.8401 47H6.76006L4.56006 58H20.0001V54H9.44006Z" fill="black"/>
</svg>
