<svg width="81" height="80" viewBox="0 0 81 80" fill="none" xmlns="http://www.w3.org/2000/svg">
<g clip-path="url(#clip0_87_120)">
<mask id="mask0_87_120" style="mask-type:luminance" maskUnits="userSpaceOnUse" x="0" y="0" width="81" height="80">
<path d="M0.389893 0H80.3899V80H0.389893V0Z" fill="white"/>
</mask>
<g mask="url(#mask0_87_120)">
<path fill-rule="evenodd" clip-rule="evenodd" d="M25.5609 17H55.2179L70.0649 31.847L40.3899 69.216L10.7139 31.847L25.5609 17ZM27.2179 21L16.0649 32.153L40.3899 62.784L64.7139 32.153L53.5609 21H27.2179Z" fill="#B89E61"/>
<path fill-rule="evenodd" clip-rule="evenodd" d="M67.3899 34H13.3899V30H67.3899V34Z" fill="#B89E61"/>
<path fill-rule="evenodd" clip-rule="evenodd" d="M39.0289 33.466L25.0289 20.466L27.7509 17.534L40.3899 29.271L53.0289 17.534L55.7499 20.466L41.7499 33.466C41.38 33.8093 40.894 34 40.3894 34C39.8848 34 39.3988 33.8093 39.0289 33.466ZM5.38989 14V0H9.38989V14H5.38989Z" fill="#B89E61"/>
<path fill-rule="evenodd" clip-rule="evenodd" d="M0.389893 5H14.3899V9H0.389893V5ZM71.3899 80V66H75.3899V80H71.3899Z" fill="#B89E61"/>
<path fill-rule="evenodd" clip-rule="evenodd" d="M66.3899 71H80.3899V75H66.3899V71ZM11.3899 73V60H15.3899V73H11.3899ZM68.3899 7V0H72.3899V7H68.3899Z" fill="#B89E61"/>
</g>
</g>
<defs>
<clipPath id="clip0_87_120">
<rect width="80" height="80" fill="white" transform="translate(0.389893)"/>
</clipPath>
</defs>
</svg>
